<svg version="1.1" id="Layer_1" xmlns="http://www.w3.org/2000/svg" xmlns:xlink="http://www.w3.org/1999/xlink" x="0px" y="0px"
	 width="100%" viewBox="0 0 500 500" enable-background="new 0 0 500 500" xml:space="preserve">
<path fill="#000000" opacity="1.000000" stroke="none" 
	d="
M223.000000,501.000000 
	C148.666687,501.000000 74.833366,501.000000 1.000040,501.000000 
	C1.000026,334.333405 1.000026,167.666779 1.000013,1.000129 
	C167.666565,1.000086 334.333130,1.000086 500.999756,1.000043 
	C500.999847,167.666534 500.999847,334.333069 500.999939,500.999817 
	C408.500000,501.000000 316.000000,501.000000 223.000000,501.000000 
M249.703049,198.046417 
	C249.983795,197.833405 250.150742,197.552704 250.674591,197.025177 
	C250.847961,196.746674 251.021332,196.468170 251.660385,196.010269 
	C251.954483,195.812210 252.129700,195.538147 252.656326,195.012970 
	C252.833145,194.738052 253.009964,194.463135 253.657944,194.012924 
	C253.835831,193.737869 254.013702,193.462830 254.754044,192.944183 
	C255.169815,192.294098 255.585571,191.644028 256.365845,190.425293 
	C260.460297,187.139969 264.639740,183.954010 268.628021,180.544464 
	C273.747650,176.167770 276.645264,170.501831 277.650757,163.850754 
	C279.544067,151.327026 271.280701,138.089676 259.925171,135.239151 
	C251.822189,132.816666 243.921158,132.396896 235.935379,137.783890 
	C228.884293,142.508118 225.173996,149.181534 223.846558,157.509552 
	C220.838318,176.382492 214.993103,194.363831 205.992554,211.247726 
	C202.462921,217.868851 198.558823,224.290344 194.834549,230.838547 
	C194.834549,230.838547 194.807831,230.864105 194.262573,231.220490 
	C193.467377,232.770248 192.672180,234.320007 191.949005,235.891968 
	C191.949005,235.891968 191.874924,235.903564 191.327545,236.281052 
	C190.153595,238.445450 188.979660,240.609848 187.787857,242.806763 
	C187.787857,242.806763 187.757706,242.828369 187.196716,243.149216 
	C186.655930,244.321869 186.115158,245.494522 185.650665,246.731339 
	C185.650665,246.731339 185.703033,246.646515 185.200745,246.907730 
	C185.101593,247.262039 185.002441,247.616364 184.965790,247.933609 
	C184.965790,247.933609 184.893478,247.926239 184.353317,248.281830 
	C183.538177,249.802963 182.723038,251.324097 181.355011,253.244354 
	C178.163071,258.403259 174.971130,263.562164 171.748550,268.751038 
	C171.748550,268.751038 171.745193,268.792969 171.222458,269.109467 
	C170.734085,269.992310 170.245712,270.875153 169.910461,271.850128 
	C169.910461,271.850128 169.741272,271.792786 169.191162,272.149994 
	C167.739853,274.366638 166.288544,276.583282 164.860382,278.867096 
	C164.860382,278.867096 164.923080,278.833679 164.421555,279.002350 
	C164.277634,279.311249 164.133728,279.620148 163.921173,279.944031 
	C163.921173,279.944031 163.931900,280.013458 163.427429,280.314545 
	C163.150970,280.825958 162.874512,281.337372 162.062012,282.224335 
	C160.044785,285.174286 158.027542,288.124237 155.430878,291.084686 
	C155.118484,291.561920 154.806076,292.039185 154.414169,292.542786 
	C154.414169,292.542786 154.407074,292.626251 153.891968,292.993988 
	C150.277832,297.328278 146.605347,301.615662 143.069275,306.012756 
	C140.546432,309.149872 138.458511,312.670563 135.718109,315.589783 
	C132.701218,318.803558 128.796814,321.209045 125.914909,324.520111 
	C117.256638,334.467682 117.958237,349.656281 126.404030,359.728241 
	C134.369583,369.227448 152.766144,371.146057 161.075058,364.082184 
	C161.075058,364.082184 161.178314,364.193024 161.804550,364.051971 
	C162.895309,363.060547 163.986084,362.069092 165.036530,361.015991 
	C165.036530,361.015991 165.029205,361.089294 165.547974,360.929657 
	C165.729416,360.628876 165.910858,360.328094 166.023941,360.023834 
	C166.023941,360.023834 166.032837,360.091675 166.539047,359.932037 
	C166.705887,359.632538 166.872711,359.333038 167.003784,358.999908 
	C167.003784,358.999908 167.045578,359.029633 167.594193,358.742554 
	C168.126389,357.879028 168.658585,357.015503 169.035675,356.015930 
	C169.035675,356.015930 169.172989,356.169739 169.708054,355.788116 
	C170.282654,354.609619 170.857254,353.431122 171.347366,352.247650 
	C171.347366,352.247650 171.361588,352.331055 171.827759,351.957306 
	C172.066849,351.412750 172.305923,350.868164 172.395111,350.304932 
	C172.395111,350.304932 172.398666,350.455933 172.855957,350.123444 
	C172.972260,349.771393 173.088562,349.419342 173.077637,349.081390 
	C173.077637,349.081390 173.096695,349.207947 173.566681,348.958618 
	C173.693542,348.638184 173.820404,348.317719 174.173462,347.878937 
	C174.173462,347.878937 174.103317,347.633514 174.677505,347.262268 
	C174.857849,346.852264 175.038193,346.442291 175.105301,346.080475 
	C175.105301,346.080475 175.158707,346.191315 175.666565,345.917389 
	C175.971390,345.430695 176.276230,344.943970 176.454910,344.359222 
	C176.454910,344.359222 176.523605,344.503479 176.968140,344.200165 
	C177.121109,343.881317 177.274078,343.562469 177.331619,343.260162 
	C177.331619,343.260162 177.366394,343.350555 177.927460,343.035400 
	C179.192993,341.353271 180.458527,339.671143 182.214859,337.799469 
	C182.481644,337.574707 182.748428,337.349945 183.666550,337.040802 
	C184.462585,336.311951 185.258621,335.583069 186.576477,334.905426 
	C186.791107,334.644714 187.005737,334.384003 187.100540,334.110229 
	C187.100540,334.110229 187.094208,334.230591 187.659805,334.126465 
	C188.084671,333.765350 188.509552,333.404266 189.028381,333.065887 
	C189.028381,333.065887 189.054214,332.972717 189.653488,332.875885 
	C190.459656,332.283325 191.265808,331.690735 192.053131,331.007477 
	C192.053131,331.007477 192.050369,331.097900 192.616074,331.053680 
	C192.868378,330.791809 193.120697,330.529938 193.228256,330.301086 
	C193.228256,330.301086 193.276352,330.441559 193.864502,330.330933 
	C194.319290,329.971832 194.774078,329.612762 195.077942,329.161896 
	C195.077942,329.161896 195.197220,329.292206 195.837509,329.185211 
	C196.901627,328.483582 197.965744,327.781921 198.998184,327.044739 
	C198.998184,327.044739 199.041168,327.059357 199.704224,326.962341 
	C200.007401,326.654785 200.310577,326.347229 200.849350,326.194275 
	C200.849350,326.194275 201.013428,325.965149 201.626373,325.879608 
	C202.455292,325.300598 203.284210,324.721558 204.069702,324.052948 
	C204.069702,324.052948 204.062897,324.152283 204.651672,324.100311 
	C205.110580,323.756775 205.569504,323.413269 206.059753,323.069214 
	C206.059753,323.069214 206.083145,323.048401 206.774506,322.936432 
	C217.932632,316.404724 229.090759,309.872986 240.133911,303.074951 
	C240.133911,303.074951 240.216553,303.352936 240.808929,303.263275 
	C241.263306,302.904419 241.717682,302.545563 242.105576,302.137665 
	C242.105576,302.137665 242.100266,302.220123 242.710953,302.158844 
	C243.187180,301.800598 243.663406,301.442352 244.827911,300.960846 
	C248.719025,298.732269 252.680359,296.615936 256.478943,294.239441 
	C259.490875,292.355133 262.303345,290.152008 265.774078,288.167175 
	C270.062805,285.929657 274.534088,283.979004 278.600311,281.391815 
	C285.909943,276.740967 293.283905,276.032837 301.316589,280.172485 
	C301.316589,280.172485 301.712830,280.205231 301.781952,280.203796 
	C301.781952,280.203796 301.766235,280.136475 301.920990,280.638916 
	C302.230255,280.772522 302.539520,280.906128 303.123901,281.566559 
	C303.755890,282.027985 304.387878,282.489441 305.082092,283.253418 
	C305.082092,283.253418 305.376404,283.347260 305.398682,283.492859 
	C305.398682,283.492859 305.545410,283.505493 305.686951,283.935272 
	C305.849304,284.209595 306.083588,284.390839 306.387817,284.680420 
	C306.387817,284.680420 306.584595,284.723175 306.835846,285.325165 
	C308.831085,288.938354 310.924774,292.501129 312.804596,296.173401 
	C321.001923,312.187317 325.580750,329.337524 328.966034,346.913452 
	C330.975555,357.346527 336.944092,364.619141 347.704742,367.357758 
	C347.704742,367.357758 347.763306,367.325531 348.040222,367.717834 
	C348.040222,367.717834 348.498322,367.861115 348.498322,367.861115 
	C348.498322,367.861115 348.975433,367.808441 349.640533,368.120758 
	C353.410400,368.132782 357.427917,369.000671 360.903381,367.995117 
	C371.011444,365.070709 378.938507,359.261139 381.497742,348.310699 
	C383.924164,337.928467 381.252441,328.915161 373.404968,321.596741 
	C371.859833,320.155792 369.808563,319.232971 368.358032,317.719269 
	C359.540375,308.517487 350.828949,299.213898 342.022156,289.967804 
	C342.022156,289.967804 342.065887,289.920288 341.920197,289.345306 
	C341.273071,288.941742 340.625916,288.538147 339.986115,287.474976 
	C339.828735,287.321442 339.671326,287.167877 339.289062,286.582581 
	C338.817474,286.047302 338.345856,285.512024 337.488770,284.521729 
	C337.354370,284.375214 337.220001,284.228729 337.122711,283.470825 
	C336.136353,281.930176 335.149994,280.389526 334.050354,278.954102 
	C334.050354,278.954102 334.186218,278.880371 334.196899,278.143341 
	C329.749084,271.570221 327.574829,264.615356 329.144348,256.485535 
	C331.761230,242.930954 324.944122,230.583374 312.736206,225.838318 
	C300.043182,220.904724 286.413818,225.551300 279.222443,237.849228 
	C272.408325,249.502014 263.415924,258.811768 251.242371,266.057343 
	C242.453583,271.297638 233.664810,276.537964 224.935349,281.823883 
	C224.935349,281.823883 224.875687,281.781219 224.177582,281.860291 
	C222.999054,282.527313 221.820511,283.194305 220.240921,283.994354 
	C220.005829,284.186279 219.888611,284.433960 219.445114,284.852753 
	C219.445114,284.852753 219.021347,285.028717 218.493515,284.939911 
	C218.285889,285.215881 218.078278,285.491821 217.157043,285.849121 
	C215.018478,287.101715 212.879913,288.354309 210.686371,289.609039 
	C210.686371,289.609039 210.660706,289.657715 210.005295,289.792114 
	C208.337479,290.839722 206.669662,291.887329 204.945557,292.918335 
	C204.945557,292.918335 204.926849,292.973999 204.244843,293.091064 
	C202.283615,294.325073 200.322388,295.559082 198.121140,296.728729 
	C198.121140,296.728729 198.010773,296.951385 197.295670,297.080811 
	C196.443192,297.576233 195.645264,298.285645 194.726212,298.519897 
	C193.101151,298.934204 190.528381,299.820618 189.930786,299.134491 
	C188.931290,297.986938 189.173248,295.758087 189.075348,293.623291 
	C189.075348,293.623291 189.095230,293.219086 189.698441,292.903534 
	C196.935349,280.367950 204.172256,267.832397 211.156662,255.056046 
	C211.156662,255.056046 211.383926,255.320724 211.894211,254.905685 
	C213.071136,252.711334 214.248062,250.516983 215.118469,247.969101 
	C215.118469,247.969101 215.411438,248.331146 215.911179,247.905807 
	C217.095810,245.730484 218.280441,243.555161 219.055161,241.189880 
	C219.055161,241.189880 219.474579,241.356125 219.959244,240.919785 
	C221.131729,238.761902 222.304214,236.604019 223.547714,234.410629 
	C223.547714,234.410629 223.541870,234.331421 223.999542,233.882156 
	C226.816498,229.053802 229.633469,224.225464 232.324615,219.242615 
	C232.324615,219.242615 232.487045,219.358002 232.950226,219.023346 
	C233.301743,218.361938 233.653275,217.700516 234.039032,217.027863 
	C234.039032,217.027863 234.033813,216.992218 234.568146,216.635529 
	C235.509201,215.194046 236.450256,213.752579 237.299805,212.260590 
	C237.299805,212.260590 237.327774,212.361313 237.809097,212.102951 
	C237.951920,211.775192 238.094757,211.447449 238.159912,211.124557 
	C238.159912,211.124557 238.190781,211.195999 238.731995,210.914474 
	C239.306091,210.078827 239.880188,209.243179 240.973694,208.033188 
	C242.302063,206.341766 243.630417,204.650360 245.438843,202.699188 
	C245.741562,202.253677 246.044266,201.808167 246.803055,201.153107 
	C246.976501,200.873917 247.149933,200.594711 247.775848,200.118240 
	C248.055222,199.910812 248.223160,199.635437 248.744354,199.096161 
	C248.911133,198.812622 249.077911,198.529083 249.703049,198.046417 
z"/>
<path fill="#41ED93" opacity="1.000000" stroke="none" 
	d="
M189.095230,293.219086 
	C189.095230,293.219086 189.075348,293.623291 188.665436,293.947754 
	C188.233444,296.011353 187.524002,298.216217 188.324692,299.397766 
	C190.320328,302.342712 194.915222,301.039642 198.010773,296.951385 
	C198.010773,296.951385 198.121140,296.728729 198.632965,296.757874 
	C200.409943,296.518524 201.675095,296.250000 202.950867,296.380737 
	C201.772736,299.568878 200.847626,302.511047 199.334808,305.111298 
	C196.940155,309.227264 197.910065,313.223694 202.070129,314.780731 
	C208.194168,317.072876 208.194168,317.072876 206.083145,323.048401 
	C206.083145,323.048401 206.059753,323.069214 205.760864,323.126526 
	C204.995605,323.506653 204.529251,323.829468 204.062897,324.152283 
	C204.062897,324.152283 204.069702,324.052948 203.752899,324.090271 
	C202.628540,324.740143 201.820984,325.352661 201.013428,325.965149 
	C201.013428,325.965149 200.849350,326.194275 200.451935,326.258850 
	C199.716736,326.568726 199.378952,326.814026 199.041168,327.059357 
	C199.041168,327.059357 198.998184,327.044739 198.664368,327.067627 
	C197.286102,327.824402 196.241653,328.558289 195.197220,329.292206 
	C195.197220,329.292206 195.077942,329.161896 194.846802,329.231567 
	C194.169235,329.681335 193.722794,330.061432 193.276352,330.441559 
	C193.276352,330.441559 193.228256,330.301086 193.052475,330.377716 
	C192.601257,330.668884 192.325821,330.883392 192.050385,331.097900 
	C192.050369,331.097900 192.053131,331.007477 191.727554,331.058960 
	C190.619385,331.731232 189.836807,332.351959 189.054214,332.972717 
	C189.054214,332.972717 189.028381,333.065887 188.708740,333.124329 
	C187.957474,333.532013 187.525833,333.881317 187.094208,334.230591 
	C187.094208,334.230591 187.100540,334.110229 186.947601,334.209351 
	C186.516205,334.447327 186.269531,334.629242 186.054657,334.854218 
	C185.258621,335.583069 184.462585,336.311951 183.334961,336.661774 
	C182.856979,334.409424 182.710571,332.536102 182.602493,331.153198 
	C176.755875,333.217896 171.422852,335.101227 165.777695,337.094788 
	C165.407425,335.288940 165.202393,334.343262 165.020493,333.393158 
	C163.817184,327.108307 162.282883,320.862366 161.530746,314.523743 
	C160.980576,309.887115 160.477432,304.848145 161.718155,300.491058 
	C163.468460,294.344513 166.836578,288.656433 169.538025,282.783813 
	C171.061157,279.472778 172.665405,276.198883 174.174927,272.881775 
	C175.284698,270.443085 174.373322,269.074371 171.779205,268.721069 
	C174.971130,263.562164 178.163071,258.403259 181.870514,253.160690 
	C183.221832,251.360092 184.057663,249.643173 184.893478,247.926239 
	C184.893478,247.926239 184.965790,247.933609 185.109406,247.758041 
	C185.403030,247.270493 185.553024,246.958496 185.703033,246.646515 
	C185.703033,246.646515 185.650665,246.731339 185.957764,246.606491 
	C186.762482,245.263885 187.260101,244.046127 187.757721,242.828369 
	C187.757706,242.828369 187.787857,242.806763 188.142593,242.749329 
	C189.623184,240.429123 190.749039,238.166336 191.874908,235.903564 
	C191.874924,235.903564 191.949005,235.891968 192.257538,235.810455 
	C193.313324,234.107315 194.060577,232.485718 194.807831,230.864105 
	C194.807831,230.864105 194.834549,230.838547 195.154892,230.784012 
	C196.652115,229.741074 197.829010,228.752670 199.619797,227.248688 
	C199.366211,228.808212 199.372787,229.640854 199.091919,230.361481 
	C195.918488,238.503677 195.088043,247.025909 194.507248,255.662979 
	C194.095581,261.784851 196.051712,263.711060 201.753510,261.922119 
	C203.020889,261.524475 204.553787,261.973083 205.823303,262.342773 
	C204.253616,265.089020 202.743927,267.481049 201.411591,269.968079 
	C197.269989,277.699036 193.195648,285.466064 189.095230,293.219086 
z"/>
<path fill="#43E98C" opacity="1.000000" stroke="none" 
	d="
M171.763885,268.736053 
	C174.373322,269.074371 175.284698,270.443085 174.174927,272.881775 
	C172.665405,276.198883 171.061157,279.472778 169.538025,282.783813 
	C166.836578,288.656433 163.468460,294.344513 161.718155,300.491058 
	C160.477432,304.848145 160.980576,309.887115 161.530746,314.523743 
	C162.282883,320.862366 163.817184,327.108307 165.020493,333.393158 
	C165.202393,334.343262 165.407425,335.288940 165.777695,337.094788 
	C171.422852,335.101227 176.755875,333.217896 182.602493,331.153198 
	C182.710571,332.536102 182.856979,334.409424 183.009293,336.703949 
	C182.748428,337.349945 182.481644,337.574707 181.650711,337.981689 
	C179.846512,339.892792 178.606445,341.621674 177.366394,343.350555 
	C177.366394,343.350555 177.331619,343.260162 177.148163,343.397034 
	C176.817673,343.857117 176.670639,344.180298 176.523621,344.503479 
	C176.523605,344.503479 176.454910,344.359222 176.224228,344.501221 
	C175.715256,345.159241 175.436981,345.675293 175.158707,346.191315 
	C175.158707,346.191315 175.105301,346.080475 174.926880,346.287048 
	C174.533417,346.873596 174.318359,347.253571 174.103317,347.633514 
	C174.103317,347.633514 174.173462,347.878937 173.881042,348.111511 
	C173.370087,348.600983 173.206116,348.888947 173.096695,349.207947 
	C173.096695,349.207947 173.077637,349.081390 172.940216,349.262573 
	C172.668091,349.781128 172.533386,350.118530 172.398682,350.455933 
	C172.398666,350.455933 172.395111,350.304932 172.182007,350.455872 
	C171.766464,351.181580 171.564026,351.756317 171.361572,352.331055 
	C171.361588,352.331055 171.347366,352.247650 171.045654,352.361389 
	C170.220291,353.706635 169.696640,354.938202 169.172989,356.169739 
	C169.172989,356.169739 169.035675,356.015930 168.782806,356.151001 
	C168.035141,357.200623 167.540359,358.115112 167.045578,359.029633 
	C167.045578,359.029633 167.003784,358.999908 166.822449,359.160797 
	C166.393509,359.542938 166.190750,359.799591 166.032837,360.091675 
	C166.032837,360.091675 166.023941,360.023834 165.850769,360.170929 
	C165.461487,360.575134 165.245346,360.832214 165.029205,361.089294 
	C165.029205,361.089294 165.036530,361.015991 164.691635,361.048889 
	C163.290604,362.118835 162.234467,363.155945 161.178314,364.193024 
	C161.178314,364.193024 161.075058,364.082184 160.702209,364.114075 
	C144.089767,367.867584 138.844589,357.361938 133.645386,345.453003 
	C135.571716,336.669556 136.381668,327.429749 139.733780,319.229095 
	C143.186340,310.782654 149.141953,303.364380 153.920425,295.446777 
	C154.379639,294.685852 154.258682,293.574768 154.407074,292.626251 
	C154.407074,292.626251 154.414169,292.542786 154.730621,292.469666 
	C155.368164,291.955780 155.689240,291.514984 156.010315,291.074188 
	C158.027542,288.124237 160.044785,285.174286 162.581238,281.881592 
	C163.377594,281.030396 163.654739,280.521912 163.931900,280.013458 
	C163.931900,280.013458 163.921173,279.944031 164.135254,279.777161 
	C164.567230,279.371124 164.758469,279.112244 164.923080,278.833679 
	C164.923080,278.833679 164.860382,278.867096 165.199890,278.811279 
	C166.940018,276.434601 168.340652,274.113708 169.741272,271.792786 
	C169.741272,271.792786 169.910461,271.850128 170.177231,271.754272 
	C170.877731,270.703278 171.311462,269.748108 171.745193,268.792969 
	C171.745193,268.792969 171.748550,268.751038 171.763885,268.736053 
z"/>
<path fill="#39F1BF" opacity="1.000000" stroke="none" 
	d="
M305.019867,282.950867 
	C304.387878,282.489441 303.755890,282.027985 302.838135,281.121521 
	C302.314789,280.460938 302.052734,280.280914 301.766235,280.136475 
	C301.766235,280.136475 301.781952,280.203796 301.818298,279.909790 
	C301.889221,279.416504 301.923767,279.217163 301.894745,278.678955 
	C298.636139,275.865173 295.490112,273.323486 292.231476,270.935394 
	C289.322205,268.803345 285.987061,267.162415 283.385803,264.722687 
	C280.106293,261.646790 278.689880,258.033997 282.317474,253.832733 
	C284.094971,251.774170 286.828674,248.249191 286.144653,246.747696 
	C282.907959,239.642822 288.372284,236.335205 291.537720,232.031174 
	C293.060272,229.960922 294.802490,226.929550 296.844391,226.564163 
	C304.456207,225.202179 312.025574,225.359924 318.492767,230.914688 
	C325.629303,237.044388 328.317657,244.842896 327.622040,254.068192 
	C324.193665,256.320740 323.836426,258.595154 326.976868,261.454956 
	C327.332916,264.907196 327.678772,267.930145 327.650757,270.939514 
	C326.232147,270.490051 325.221405,269.915009 324.135010,269.649658 
	C322.357788,269.215576 319.932922,268.146088 318.888214,268.892975 
	C317.767273,269.694427 317.843994,272.270264 317.545685,274.095886 
	C317.233398,276.007080 316.988495,277.942535 316.908630,279.875366 
	C316.789001,282.769562 316.874451,285.671631 316.803375,288.568665 
	C316.764313,290.162079 316.583374,291.752075 316.466370,293.343597 
	C315.352020,292.325836 314.209686,291.336823 313.129333,290.284180 
	C311.073029,288.280548 311.010315,283.940735 306.584595,284.723175 
	C306.584595,284.723175 306.387817,284.680420 306.331909,284.355164 
	C306.113678,283.742035 305.870148,283.567230 305.545410,283.505493 
	C305.545410,283.505493 305.398682,283.492859 305.432556,283.314514 
	C305.466400,283.136200 305.333344,282.886444 305.333344,282.886444 
	C305.333344,282.886444 305.019867,282.950867 305.019867,282.950867 
z"/>
<path fill="#39F3C7" opacity="1.000000" stroke="none" 
	d="
M306.710205,285.024170 
	C311.010315,283.940735 311.073029,288.280548 313.129333,290.284180 
	C314.209686,291.336823 315.352020,292.325836 316.466370,293.343597 
	C316.583374,291.752075 316.764313,290.162079 316.803375,288.568665 
	C316.874451,285.671631 316.789001,282.769562 316.908630,279.875366 
	C316.988495,277.942535 317.233398,276.007080 317.545685,274.095886 
	C317.843994,272.270264 317.767273,269.694427 318.888214,268.892975 
	C319.932922,268.146088 322.357788,269.215576 324.135010,269.649658 
	C325.221405,269.915009 326.232147,270.490051 327.885193,271.182312 
	C330.391052,273.919220 332.288635,276.399811 334.186218,278.880371 
	C334.186218,278.880371 334.050354,278.954102 334.105286,279.229736 
	C335.135376,281.031006 336.110504,282.556641 337.085663,284.082245 
	C337.220001,284.228729 337.354370,284.375214 337.723114,284.980225 
	C338.476288,285.963928 338.995117,286.489136 339.513947,287.014313 
	C339.671326,287.167877 339.828735,287.321442 340.109680,288.068726 
	C340.844116,289.081757 341.454987,289.501038 342.065887,289.920288 
	C342.065887,289.920288 342.022156,289.967804 342.037750,290.336334 
	C342.030273,291.466644 342.007202,292.228455 341.649200,292.919922 
	C340.726837,292.547607 340.121613,292.275391 339.555328,291.937927 
	C337.807404,290.896301 336.074310,289.829742 334.335480,288.772888 
	C333.894043,290.962067 333.334198,293.136627 333.060760,295.346588 
	C332.922485,296.464233 333.325562,297.643524 333.443787,298.799072 
	C334.300598,307.173859 335.064453,315.559265 336.026154,323.921906 
	C336.665131,329.478302 337.547119,335.008057 338.388519,340.539368 
	C338.860168,343.640106 339.677185,346.699921 339.975159,349.813019 
	C340.572601,356.054321 345.210693,361.332458 350.912903,362.342712 
	C349.773804,364.227661 348.713318,365.771667 347.652832,367.315674 
	C336.944092,364.619141 330.975555,357.346527 328.966034,346.913452 
	C325.580750,329.337524 321.001923,312.187317 312.804596,296.173401 
	C310.924774,292.501129 308.831085,288.938354 306.710205,285.024170 
z"/>
<path fill="#3DF0B5" opacity="1.000000" stroke="none" 
	d="
M334.191559,278.511841 
	C332.288635,276.399811 330.391052,273.919220 328.259064,271.195862 
	C327.678772,267.930145 327.332916,264.907196 326.998108,261.055786 
	C327.329620,258.140961 327.650085,256.054565 327.970581,253.968201 
	C328.317657,244.842896 325.629303,237.044388 318.492767,230.914688 
	C312.025574,225.359924 304.456207,225.202179 296.844391,226.564163 
	C294.802490,226.929550 293.060272,229.960922 291.537720,232.031174 
	C288.372284,236.335205 282.907959,239.642822 286.144653,246.747696 
	C286.828674,248.249191 284.094971,251.774170 282.317474,253.832733 
	C278.689880,258.033997 280.106293,261.646790 283.385803,264.722687 
	C285.987061,267.162415 289.322205,268.803345 292.231476,270.935394 
	C295.490112,273.323486 298.636139,275.865173 301.727539,278.797058 
	C301.413300,279.432343 301.228851,279.634369 301.070496,279.860229 
	C293.283905,276.032837 285.909943,276.740967 278.600311,281.391815 
	C274.534088,283.979004 270.062805,285.929657 265.176697,287.954346 
	C263.899384,287.282990 263.248169,286.773163 262.535187,286.373596 
	C252.711578,280.868256 252.515335,280.817017 255.495132,270.289581 
	C256.612274,266.342834 254.088257,266.424316 251.870804,265.719543 
	C263.415924,258.811768 272.408325,249.502014 279.222443,237.849228 
	C286.413818,225.551300 300.043182,220.904724 312.736206,225.838318 
	C324.944122,230.583374 331.761230,242.930954 329.144348,256.485535 
	C327.574829,264.615356 329.749084,271.570221 334.191559,278.511841 
z"/>
<path fill="#39F9D5" opacity="1.000000" stroke="none" 
	d="
M347.678772,367.336731 
	C348.713318,365.771667 349.773804,364.227661 351.199951,362.152161 
	C355.499237,357.822357 356.298859,353.030579 355.997742,347.854431 
	C355.303589,335.923370 354.700226,323.986633 353.921112,312.061310 
	C353.806061,310.299866 353.323151,308.318756 352.342163,306.902069 
	C349.052673,302.151794 345.460449,297.611145 341.984131,292.990234 
	C342.007202,292.228455 342.030273,291.466644 342.067719,290.324585 
	C350.828949,299.213898 359.540375,308.517487 368.358032,317.719269 
	C369.808563,319.232971 371.859833,320.155792 373.404968,321.596741 
	C381.252441,328.915161 383.924164,337.928467 381.497742,348.310699 
	C378.938507,359.261139 371.011444,365.070709 360.903381,367.995117 
	C357.427917,369.000671 353.410400,368.132782 349.134827,367.820862 
	C348.362457,367.358704 348.073853,367.293549 347.763306,367.325531 
	C347.763306,367.325531 347.704742,367.357758 347.678772,367.336731 
z"/>
<path fill="#40EE9D" opacity="1.000000" stroke="none" 
	d="
M205.964417,262.032043 
	C204.553787,261.973083 203.020889,261.524475 201.753510,261.922119 
	C196.051712,263.711060 194.095581,261.784851 194.507248,255.662979 
	C195.088043,247.025909 195.918488,238.503677 199.091919,230.361481 
	C199.372787,229.640854 199.366211,228.808212 199.619797,227.248688 
	C197.829010,228.752670 196.652115,229.741074 195.150253,230.766113 
	C198.558823,224.290344 202.462921,217.868851 205.992554,211.247726 
	C214.993103,194.363831 220.838318,176.382492 223.846558,157.509552 
	C225.173996,149.181534 228.884293,142.508118 236.372955,137.806396 
	C236.810516,137.828918 237.039764,138.060562 236.850586,138.331070 
	C224.675247,147.080734 225.651657,161.015854 222.483322,173.081970 
	C220.832657,179.368240 221.522461,186.263000 219.921829,192.569885 
	C217.314224,202.844437 213.588226,212.831070 210.617767,223.021866 
	C210.158936,224.595963 210.646881,227.511520 211.714493,228.178833 
	C212.887436,228.912018 215.807404,228.390411 216.978226,227.327377 
	C222.896484,221.954102 228.428986,216.158447 234.252609,210.676483 
	C235.532135,209.472031 237.445587,208.941040 238.923096,208.393555 
	C238.583008,209.523468 238.386902,210.359726 238.190781,211.195999 
	C238.190781,211.195999 238.159912,211.124557 237.985245,211.279022 
	C237.649643,211.742752 237.488708,212.052032 237.327774,212.361313 
	C237.327774,212.361313 237.299805,212.260590 237.006378,212.373444 
	C235.819916,213.988281 234.926865,215.490250 234.033813,216.992218 
	C234.033813,216.992218 234.039032,217.027863 233.722870,217.134201 
	C233.100143,217.946365 232.793594,218.652176 232.487045,219.358002 
	C232.487045,219.358002 232.324615,219.242615 232.051239,219.388184 
	C228.208481,224.007660 222.926788,227.528549 223.541870,234.331421 
	C223.541870,234.331421 223.547714,234.410629 223.166016,234.485901 
	C221.681061,236.826157 220.577820,239.091141 219.474579,241.356125 
	C219.474579,241.356125 219.055161,241.189880 218.915253,241.358536 
	C217.654037,243.795181 216.532745,246.063156 215.411438,248.331146 
	C215.411438,248.331146 215.118469,247.969101 214.931274,248.235413 
	C213.624023,250.774719 212.503967,253.047714 211.383911,255.320709 
	C211.383926,255.320724 211.156662,255.056046 210.952179,255.265564 
	C209.153290,257.660736 207.558853,259.846375 205.964417,262.032043 
z"/>
<path fill="#3DF0B5" opacity="1.000000" stroke="none" 
	d="
M260.180023,135.883011 
	C271.280701,138.089676 279.544067,151.327026 277.650757,163.850754 
	C276.645264,170.501831 273.747650,176.167770 268.628021,180.544464 
	C264.639740,183.954010 260.460297,187.139969 255.928284,190.721344 
	C255.320526,191.024994 255.150345,191.032593 254.834930,190.676056 
	C250.985794,177.736404 249.593338,164.783401 249.243561,151.778763 
	C249.152252,148.384262 251.653946,144.902191 253.042892,141.492172 
	C253.932388,139.308380 254.965118,137.182938 256.293152,135.078308 
	C257.828461,135.377838 259.004242,135.630417 260.180023,135.883011 
z"/>
<path fill="#3DEFA7" opacity="1.000000" stroke="none" 
	d="
M251.556580,265.888428 
	C254.088257,266.424316 256.612274,266.342834 255.495132,270.289581 
	C252.515335,280.817017 252.711578,280.868256 262.535187,286.373596 
	C263.248169,286.773163 263.899384,287.282990 264.891846,287.916016 
	C262.303345,290.152008 259.490875,292.355133 256.478943,294.239441 
	C252.680359,296.615936 248.719025,298.732269 244.183380,301.064209 
	C243.059326,301.518433 242.579788,301.869263 242.100266,302.220123 
	C242.100266,302.220123 242.105576,302.137665 241.836761,302.190125 
	C241.117477,302.612732 240.667007,302.982819 240.216553,303.352936 
	C240.216553,303.352936 240.133911,303.074951 239.800751,303.124329 
	C235.095078,300.957275 230.613861,300.597626 225.854721,301.919586 
	C224.154877,302.391754 222.153107,302.262512 220.396759,301.894348 
	C218.951462,301.591461 216.946899,300.821472 216.501724,299.725677 
	C216.014328,298.525970 216.561035,296.298431 217.486099,295.250946 
	C219.893112,292.525360 222.774628,290.222351 225.427094,287.708801 
	C227.261505,285.970459 229.029831,284.162354 231.874832,281.350403 
	C228.403046,281.562653 226.639542,281.670471 224.876038,281.778290 
	C233.664810,276.537964 242.453583,271.297638 251.556580,265.888428 
z"/>
<path fill="#48E883" opacity="1.000000" stroke="none" 
	d="
M154.149506,292.810120 
	C154.258682,293.574768 154.379639,294.685852 153.920425,295.446777 
	C149.141953,303.364380 143.186340,310.782654 139.733780,319.229095 
	C136.381668,327.429749 135.571716,336.669556 133.645386,345.453003 
	C138.844589,357.361938 144.089767,367.867584 160.749725,364.165222 
	C152.766144,371.146057 134.369583,369.227448 126.404030,359.728241 
	C117.958237,349.656281 117.256638,334.467682 125.914909,324.520111 
	C128.796814,321.209045 132.701218,318.803558 135.718109,315.589783 
	C138.458511,312.670563 140.546432,309.149872 143.069275,306.012756 
	C146.605347,301.615662 150.277832,297.328278 154.149506,292.810120 
z"/>
<path fill="#40EE9D" opacity="1.000000" stroke="none" 
	d="
M224.905701,281.801086 
	C226.639542,281.670471 228.403046,281.562653 231.874832,281.350403 
	C229.029831,284.162354 227.261505,285.970459 225.427094,287.708801 
	C222.774628,290.222351 219.893112,292.525360 217.486099,295.250946 
	C216.561035,296.298431 216.014328,298.525970 216.501724,299.725677 
	C216.946899,300.821472 218.951462,301.591461 220.396759,301.894348 
	C222.153107,302.262512 224.154877,302.391754 225.854721,301.919586 
	C230.613861,300.597626 235.095078,300.957275 239.858246,303.257507 
	C229.090759,309.872986 217.932632,316.404724 206.428833,322.992432 
	C208.194168,317.072876 208.194168,317.072876 202.070129,314.780731 
	C197.910065,313.223694 196.940155,309.227264 199.334808,305.111298 
	C200.847626,302.511047 201.772736,299.568878 203.160522,296.151306 
	C203.882019,294.673004 204.404434,293.823517 204.926849,292.973999 
	C204.926849,292.973999 204.945557,292.918335 205.333786,292.924744 
	C207.368240,291.839966 209.014465,290.748840 210.660706,289.657715 
	C210.660706,289.657715 210.686371,289.609039 211.075165,289.633667 
	C213.599533,288.361450 215.735092,287.064636 217.870651,285.767792 
	C218.078278,285.491821 218.285889,285.215881 218.880066,285.053375 
	C219.573456,285.194550 219.780991,285.051392 219.889236,284.737427 
	C219.888611,284.433960 220.005829,284.186279 220.813782,283.942932 
	C222.549652,283.188110 223.712677,282.484650 224.875687,281.781219 
	C224.875687,281.781219 224.935349,281.823883 224.905701,281.801086 
z"/>
<path fill="#43E98C" opacity="1.000000" stroke="none" 
	d="
M205.823288,262.342773 
	C207.558853,259.846375 209.153290,257.660736 211.078430,255.385956 
	C204.172256,267.832397 196.935349,280.367950 189.396835,293.061310 
	C193.195648,285.466064 197.269989,277.699036 201.411591,269.968079 
	C202.743927,267.481049 204.253616,265.089020 205.823288,262.342773 
z"/>
<path fill="#40EE9D" opacity="1.000000" stroke="none" 
	d="
M260.052612,135.561081 
	C259.004242,135.630417 257.828461,135.377838 255.854736,135.063232 
	C249.051132,136.021011 243.045441,137.040787 237.039764,138.060562 
	C237.039764,138.060562 236.810516,137.828918 236.698425,137.710678 
	C243.921158,132.396896 251.822189,132.816666 260.052612,135.561081 
z"/>
<path fill="#43E98C" opacity="1.000000" stroke="none" 
	d="
M223.770706,234.106781 
	C222.926788,227.528549 228.208481,224.007660 232.114136,219.465424 
	C229.633469,224.225464 226.816498,229.053802 223.770706,234.106781 
z"/>
<path fill="#43E98C" opacity="1.000000" stroke="none" 
	d="
M197.653229,297.016113 
	C194.915222,301.039642 190.320328,302.342712 188.324692,299.397766 
	C187.524002,298.216217 188.233444,296.011353 188.574097,294.128296 
	C189.173248,295.758087 188.931290,297.986938 189.930786,299.134491 
	C190.528381,299.820618 193.101151,298.934204 194.726212,298.519897 
	C195.645264,298.285645 196.443192,297.576233 197.653229,297.016113 
z"/>
<path fill="#41ED93" opacity="1.000000" stroke="none" 
	d="
M169.466217,271.971375 
	C168.340652,274.113708 166.940018,276.434601 165.188293,278.777710 
	C166.288544,276.583282 167.739853,274.366638 169.466217,271.971375 
z"/>
<path fill="#48E883" opacity="1.000000" stroke="none" 
	d="
M177.646912,343.192993 
	C178.606445,341.621674 179.846512,339.892792 181.405319,338.076477 
	C180.458527,339.671143 179.192993,341.353271 177.646912,343.192993 
z"/>
<path fill="#43E98C" opacity="1.000000" stroke="none" 
	d="
M219.716904,241.137955 
	C220.577820,239.091141 221.681061,236.826157 223.130493,234.503662 
	C222.304214,236.604019 221.131729,238.761902 219.716904,241.137955 
z"/>
<path fill="#40EE9D" opacity="1.000000" stroke="none" 
	d="
M191.601227,236.092300 
	C190.749039,238.166336 189.623184,240.429123 188.151520,242.733078 
	C188.979660,240.609848 190.153595,238.445450 191.601227,236.092300 
z"/>
<path fill="#43E98C" opacity="1.000000" stroke="none" 
	d="
M215.661316,248.118469 
	C216.532745,246.063156 217.654037,243.795181 219.120209,241.453522 
	C218.280441,243.555161 217.095810,245.730484 215.661316,248.118469 
z"/>
<path fill="#43E98C" opacity="1.000000" stroke="none" 
	d="
M217.513855,285.808472 
	C215.735092,287.064636 213.599533,288.361450 211.102661,289.632599 
	C212.879913,288.354309 215.018478,287.101715 217.513855,285.808472 
z"/>
<path fill="#43E98C" opacity="1.000000" stroke="none" 
	d="
M211.639069,255.113190 
	C212.503967,253.047714 213.624023,250.774719 215.084534,248.412186 
	C214.248062,250.516983 213.071136,252.711334 211.639069,255.113190 
z"/>
<path fill="#43E98C" opacity="1.000000" stroke="none" 
	d="
M204.585846,293.032532 
	C204.404434,293.823517 203.882019,294.673004 203.149933,295.751984 
	C201.675095,296.250000 200.409943,296.518524 198.752960,296.790070 
	C200.322388,295.559082 202.283615,294.325073 204.585846,293.032532 
z"/>
<path fill="#43E98C" opacity="1.000000" stroke="none" 
	d="
M244.958786,202.958939 
	C243.630417,204.650360 242.302063,206.341766 240.589996,208.107254 
	C240.206314,208.181320 239.957916,207.955597 240.050491,207.635468 
	C241.677963,205.793762 243.212845,204.272217 244.800369,202.802856 
	C244.852997,202.855057 244.958786,202.958939 244.958786,202.958939 
z"/>
<path fill="#3DF0B5" opacity="1.000000" stroke="none" 
	d="
M337.104187,283.776550 
	C336.110504,282.556641 335.135376,281.031006 334.161926,279.177124 
	C335.149994,280.389526 336.136353,281.930176 337.104187,283.776550 
z"/>
<path fill="#43E98C" opacity="1.000000" stroke="none" 
	d="
M210.332993,289.724915 
	C209.014465,290.748840 207.368240,291.839966 205.361938,292.933044 
	C206.669662,291.887329 208.337479,290.839722 210.332993,289.724915 
z"/>
<path fill="#40EE9D" opacity="1.000000" stroke="none" 
	d="
M184.623398,248.104034 
	C184.057663,249.643173 183.221832,251.360092 182.146942,252.961121 
	C182.723038,251.324097 183.538177,249.802963 184.623398,248.104034 
z"/>
<path fill="#43E98C" opacity="1.000000" stroke="none" 
	d="
M234.300995,216.813873 
	C234.926865,215.490250 235.819916,213.988281 237.052139,212.398712 
	C236.450256,213.752579 235.509201,215.194046 234.300995,216.813873 
z"/>
<path fill="#40EE9D" opacity="1.000000" stroke="none" 
	d="
M194.535202,231.042297 
	C194.060577,232.485718 193.313324,234.107315 192.221527,235.799347 
	C192.672180,234.320007 193.467377,232.770248 194.535202,231.042297 
z"/>
<path fill="#48E883" opacity="1.000000" stroke="none" 
	d="
M161.491425,364.122498 
	C162.234467,363.155945 163.290604,362.118835 164.711792,361.079712 
	C163.986084,362.069092 162.895309,363.060547 161.491425,364.122498 
z"/>
<path fill="#48E883" opacity="1.000000" stroke="none" 
	d="
M169.440521,355.978943 
	C169.696640,354.938202 170.220291,353.706635 171.087891,352.363861 
	C170.857254,353.431122 170.282654,354.609619 169.440521,355.978943 
z"/>
<path fill="#3DEFA7" opacity="1.000000" stroke="none" 
	d="
M224.526642,281.820740 
	C223.712677,282.484650 222.549652,283.188110 221.014313,283.876404 
	C221.820511,283.194305 222.999054,282.527313 224.526642,281.820740 
z"/>
<path fill="#40EE9D" opacity="1.000000" stroke="none" 
	d="
M195.517365,329.238708 
	C196.241653,328.558289 197.286102,327.824402 198.680206,327.085388 
	C197.965744,327.781921 196.901627,328.483582 195.517365,329.238708 
z"/>
<path fill="#40EE9D" opacity="1.000000" stroke="none" 
	d="
M187.477219,242.988800 
	C187.260101,244.046127 186.762482,245.263885 185.919617,246.574402 
	C186.115158,245.494522 186.655930,244.321869 187.477219,242.988800 
z"/>
<path fill="#41ED93" opacity="1.000000" stroke="none" 
	d="
M171.483826,268.951233 
	C171.311462,269.748108 170.877731,270.703278 170.100677,271.708221 
	C170.245712,270.875153 170.734085,269.992310 171.483826,268.951233 
z"/>
<path fill="#48E883" opacity="1.000000" stroke="none" 
	d="
M167.319885,358.886108 
	C167.540359,358.115112 168.035141,357.200623 168.860352,356.219055 
	C168.658585,357.015503 168.126389,357.879028 167.319885,358.886108 
z"/>
<path fill="#43E98C" opacity="1.000000" stroke="none" 
	d="
M238.461395,211.055237 
	C238.386902,210.359726 238.583008,209.523468 239.145691,208.358322 
	C239.512253,208.029449 239.957916,207.955597 239.957916,207.955597 
	C239.957916,207.955597 240.206314,208.181320 240.330292,208.294418 
	C239.880188,209.243179 239.306091,210.078827 238.461395,211.055237 
z"/>
<path fill="#40EE9D" opacity="1.000000" stroke="none" 
	d="
M189.353851,332.924316 
	C189.836807,332.351959 190.619385,331.731232 191.736969,331.104309 
	C191.265808,331.690735 190.459656,332.283325 189.353851,332.924316 
z"/>
<path fill="#40EE9D" opacity="1.000000" stroke="none" 
	d="
M201.319901,325.922363 
	C201.820984,325.352661 202.628540,324.740143 203.774612,324.135071 
	C203.284210,324.721558 202.455292,325.300598 201.319901,325.922363 
z"/>
<path fill="#3DF0B5" opacity="1.000000" stroke="none" 
	d="
M339.401489,286.798462 
	C338.995117,286.489136 338.476288,285.963928 337.915863,285.207764 
	C338.345856,285.512024 338.817474,286.047302 339.401489,286.798462 
z"/>
<path fill="#43E98C" opacity="1.000000" stroke="none" 
	d="
M232.718628,219.190674 
	C232.793594,218.652176 233.100143,217.946365 233.705750,217.139832 
	C233.653275,217.700516 233.301743,218.361938 232.718628,219.190674 
z"/>
<path fill="#39F9D5" opacity="1.000000" stroke="none" 
	d="
M341.993042,289.632812 
	C341.454987,289.501038 340.844116,289.081757 340.106018,288.398529 
	C340.625916,288.538147 341.273071,288.941742 341.993042,289.632812 
z"/>
<path fill="#43E98C" opacity="1.000000" stroke="none" 
	d="
M254.980179,191.040207 
	C255.150345,191.032593 255.320526,191.024994 255.746033,191.005661 
	C255.585571,191.644028 255.169815,192.294098 254.399414,192.998108 
	C254.044800,193.052017 253.892761,192.922134 253.981583,192.660614 
	C254.373657,191.946136 254.676910,191.493164 254.980179,191.040207 
z"/>
<path fill="#40EE9D" opacity="1.000000" stroke="none" 
	d="
M193.570435,330.386230 
	C193.722794,330.061432 194.169235,329.681335 194.922272,329.277466 
	C194.774078,329.612762 194.319290,329.971832 193.570435,330.386230 
z"/>
<path fill="#40EE9D" opacity="1.000000" stroke="none" 
	d="
M187.377014,334.178528 
	C187.525833,333.881317 187.957474,333.532013 188.661758,333.112976 
	C188.509552,333.404266 188.084671,333.765350 187.377014,334.178528 
z"/>
<path fill="#48E883" opacity="1.000000" stroke="none" 
	d="
M175.412628,346.054352 
	C175.436981,345.675293 175.715256,345.159241 176.287292,344.550232 
	C176.276230,344.943970 175.971390,345.430695 175.412628,346.054352 
z"/>
<path fill="#40EE9D" opacity="1.000000" stroke="none" 
	d="
M204.357285,324.126282 
	C204.529251,323.829468 204.995605,323.506653 205.745209,323.126801 
	C205.569504,323.413269 205.110580,323.756775 204.357285,324.126282 
z"/>
<path fill="#40EE9D" opacity="1.000000" stroke="none" 
	d="
M242.405609,302.189484 
	C242.579788,301.869263 243.059326,301.518433 243.839233,301.125824 
	C243.663406,301.442352 243.187180,301.800598 242.405609,302.189484 
z"/>
<path fill="#48E883" opacity="1.000000" stroke="none" 
	d="
M171.594666,352.144165 
	C171.564026,351.756317 171.766464,351.181580 172.256958,350.465210 
	C172.305923,350.868164 172.066849,351.412750 171.594666,352.144165 
z"/>
<path fill="#40EE9D" opacity="1.000000" stroke="none" 
	d="
M240.512741,303.308105 
	C240.667007,302.982819 241.117477,302.612732 241.869995,302.214661 
	C241.717682,302.545563 241.263306,302.904419 240.512741,303.308105 
z"/>
<path fill="#48E883" opacity="1.000000" stroke="none" 
	d="
M155.720596,291.079437 
	C155.689240,291.514984 155.368164,291.955780 154.770386,292.456482 
	C154.806076,292.039185 155.118484,291.561920 155.720596,291.079437 
z"/>
<path fill="#43E98C" opacity="1.000000" stroke="none" 
	d="
M246.346985,201.362640 
	C246.044266,201.808167 245.741562,202.253677 245.198822,202.829071 
	C244.958786,202.958939 244.852997,202.855057 244.916245,202.557129 
	C245.310089,201.830429 245.640686,201.401657 246.065674,201.069855 
	C246.160080,201.166855 246.347000,201.362656 246.346985,201.362640 
z"/>
<path fill="#41ED93" opacity="1.000000" stroke="none" 
	d="
M163.679657,280.164001 
	C163.654739,280.521912 163.377594,281.030396 162.849243,281.693817 
	C162.874512,281.337372 163.150970,280.825958 163.679657,280.164001 
z"/>
<path fill="#43E98C" opacity="1.000000" stroke="none" 
	d="
M237.568436,212.232132 
	C237.488708,212.052032 237.649643,211.742752 238.024078,211.276581 
	C238.094757,211.447449 237.951920,211.775192 237.568436,212.232132 
z"/>
<path fill="#43E98C" opacity="1.000000" stroke="none" 
	d="
M248.279633,199.292084 
	C248.223160,199.635437 248.055222,199.910812 247.458817,200.128601 
	C247.141785,200.138947 246.961487,199.961060 247.109818,199.776733 
	C247.468781,199.355972 247.701447,199.143646 248.037415,199.039246 
	C248.118668,199.123032 248.279633,199.292084 248.279633,199.292084 
z"/>
<path fill="#39F3C7" opacity="1.000000" stroke="none" 
	d="
M347.901764,367.521667 
	C348.073853,367.293549 348.362457,367.358704 348.802307,367.664673 
	C348.975433,367.808441 348.498322,367.861115 348.498322,367.861115 
	C348.498322,367.861115 348.040222,367.717834 347.901764,367.521667 
z"/>
<path fill="#43E98C" opacity="1.000000" stroke="none" 
	d="
M254.118195,193.119904 
	C254.013702,193.462830 253.835831,193.737869 253.361572,194.039490 
	C253.065201,194.066040 252.944031,193.943420 253.083359,193.756287 
	C253.426331,193.333069 253.649689,193.117386 253.892761,192.922134 
	C253.892761,192.922134 254.044800,193.052017 254.118195,193.119904 
z"/>
<path fill="#48E883" opacity="1.000000" stroke="none" 
	d="
M165.288605,361.009460 
	C165.245346,360.832214 165.461487,360.575134 165.884949,360.172668 
	C165.910858,360.328094 165.729416,360.628876 165.288605,361.009460 
z"/>
<path fill="#48E883" opacity="1.000000" stroke="none" 
	d="
M166.285950,360.011841 
	C166.190750,359.799591 166.393509,359.542938 166.840332,359.177612 
	C166.872711,359.333038 166.705887,359.632538 166.285950,360.011841 
z"/>
<path fill="#41ED93" opacity="1.000000" stroke="none" 
	d="
M164.672318,278.918030 
	C164.758469,279.112244 164.567230,279.371124 164.169586,279.769653 
	C164.133728,279.620148 164.277634,279.311249 164.672318,278.918030 
z"/>
<path fill="#39F3C7" opacity="1.000000" stroke="none" 
	d="
M301.193542,280.016357 
	C301.228851,279.634369 301.413300,279.432343 301.791138,279.135986 
	C301.923767,279.217163 301.889221,279.416504 301.783752,279.910522 
	C301.712830,280.205231 301.316589,280.172485 301.193542,280.016357 
z"/>
<path fill="#40EE9D" opacity="1.000000" stroke="none" 
	d="
M185.451889,246.777130 
	C185.553024,246.958496 185.403030,247.270493 185.078156,247.776581 
	C185.002441,247.616364 185.101593,247.262039 185.451889,246.777130 
z"/>
<path fill="#48E883" opacity="1.000000" stroke="none" 
	d="
M172.627319,350.289673 
	C172.533386,350.118530 172.668091,349.781128 173.003830,349.255493 
	C173.088562,349.419342 172.972260,349.771393 172.627319,350.289673 
z"/>
<path fill="#48E883" opacity="1.000000" stroke="none" 
	d="
M173.331696,349.083282 
	C173.206116,348.888947 173.370087,348.600983 173.767944,348.170654 
	C173.820404,348.317719 173.693542,348.638184 173.331696,349.083282 
z"/>
<path fill="#48E883" opacity="1.000000" stroke="none" 
	d="
M174.390411,347.447876 
	C174.318359,347.253571 174.533417,346.873596 174.983490,346.262970 
	C175.038193,346.442291 174.857849,346.852264 174.390411,347.447876 
z"/>
<path fill="#48E883" opacity="1.000000" stroke="none" 
	d="
M176.745880,344.351807 
	C176.670639,344.180298 176.817673,343.857117 177.195877,343.388763 
	C177.274078,343.562469 177.121109,343.881317 176.745880,344.351807 
z"/>
<path fill="#43E98C" opacity="1.000000" stroke="none" 
	d="
M251.194717,196.189667 
	C251.021332,196.468170 250.847961,196.746674 250.374420,197.049988 
	C250.074249,197.074783 249.945297,196.944565 250.090775,196.757523 
	C250.446396,196.332306 250.682434,196.123398 251.006927,196.005280 
	C251.069489,196.066772 251.194717,196.189667 251.194717,196.189667 
z"/>
<path fill="#40EE9D" opacity="1.000000" stroke="none" 
	d="
M186.315567,334.879822 
	C186.269531,334.629242 186.516205,334.447327 187.007507,334.215881 
	C187.005737,334.384003 186.791107,334.644714 186.315567,334.879822 
z"/>
<path fill="#39F3C7" opacity="1.000000" stroke="none" 
	d="
M301.843628,280.387695 
	C302.052734,280.280914 302.314789,280.460938 302.700562,280.858124 
	C302.539520,280.906128 302.230255,280.772522 301.843628,280.387695 
z"/>
<path fill="#39F3C7" opacity="1.000000" stroke="none" 
	d="
M305.050964,283.102142 
	C305.019867,282.950867 305.333344,282.886444 305.333344,282.886444 
	C305.333344,282.886444 305.466400,283.136200 305.421387,283.241730 
	C305.376404,283.347260 305.082092,283.253418 305.050964,283.102142 
z"/>
<path fill="#40EE9D" opacity="1.000000" stroke="none" 
	d="
M192.333221,331.075806 
	C192.325821,330.883392 192.601257,330.668884 193.124847,330.361206 
	C193.120697,330.529938 192.868378,330.791809 192.333221,331.075806 
z"/>
<path fill="#43E98C" opacity="1.000000" stroke="none" 
	d="
M253.125992,194.127136 
	C253.009964,194.463135 252.833145,194.738052 252.360443,195.039368 
	C252.064560,195.065781 251.943237,194.943314 252.087601,194.755157 
	C252.442062,194.328003 252.679413,194.120148 252.944031,193.943420 
	C252.944031,193.943420 253.065201,194.066040 253.125992,194.127136 
z"/>
<path fill="#39F3C7" opacity="1.000000" stroke="none" 
	d="
M305.616180,283.720398 
	C305.870148,283.567230 306.113678,283.742035 306.332947,284.254456 
	C306.083588,284.390839 305.849304,284.209595 305.616180,283.720398 
z"/>
<path fill="#3DEFA7" opacity="1.000000" stroke="none" 
	d="
M219.667175,284.795105 
	C219.780991,285.051392 219.573456,285.194550 219.143982,285.097778 
	C219.021347,285.028717 219.445114,284.852753 219.667175,284.795105 
z"/>
<path fill="#40EE9D" opacity="1.000000" stroke="none" 
	d="
M199.372696,327.010864 
	C199.378952,326.814026 199.716736,326.568726 200.334137,326.181519 
	C200.310577,326.347229 200.007401,326.654785 199.372696,327.010864 
z"/>
<path fill="#43E98C" opacity="1.000000" stroke="none" 
	d="
M249.244705,198.245544 
	C249.077911,198.529083 248.911133,198.812622 248.511993,199.194122 
	C248.279633,199.292084 248.118668,199.123032 248.185730,198.855042 
	C248.463104,198.350540 248.695236,198.137833 249.023270,198.022888 
	C249.097366,198.096817 249.244705,198.245544 249.244705,198.245544 
z"/>
<path fill="#43E98C" opacity="1.000000" stroke="none" 
	d="
M250.139069,197.139557 
	C250.150742,197.552704 249.983795,197.833405 249.473877,198.145981 
	C249.244705,198.245544 249.097366,198.096817 249.168716,197.835785 
	C249.449188,197.335632 249.684265,197.125565 249.945297,196.944565 
	C249.945297,196.944565 250.074249,197.074783 250.139069,197.139557 
z"/>
<path fill="#43E98C" opacity="1.000000" stroke="none" 
	d="
M247.232574,200.227234 
	C247.149933,200.594711 246.976501,200.873917 246.575027,201.257874 
	C246.347000,201.362656 246.160080,201.166855 246.214142,200.885498 
	C246.478806,200.367661 246.709885,200.153305 246.961487,199.961060 
	C246.961487,199.961060 247.141785,200.138947 247.232574,200.227234 
z"/>
<path fill="#43E98C" opacity="1.000000" stroke="none" 
	d="
M252.125305,195.126923 
	C252.129700,195.538147 251.954483,195.812210 251.427551,196.099976 
	C251.194717,196.189667 251.069489,196.066772 251.151031,195.817047 
	C251.442184,195.328262 251.679077,195.120255 251.943237,194.943314 
	C251.943237,194.943314 252.064560,195.065781 252.125305,195.126923 
z"/>
<path fill="#39F3C7" opacity="1.000000" stroke="none" 
	d="
M327.622009,254.068192 
	C327.650085,256.054565 327.329620,258.140961 326.987885,260.626465 
	C323.836426,258.595154 324.193665,256.320740 327.622009,254.068192 
z"/>
<path fill="#34F8CD" opacity="1.000000" stroke="none" 
	d="
M341.649200,292.919922 
	C345.460449,297.611145 349.052673,302.151794 352.342163,306.902069 
	C353.323151,308.318756 353.806061,310.299866 353.921112,312.061310 
	C354.700226,323.986633 355.303589,335.923370 355.997742,347.854431 
	C356.298859,353.030579 355.499237,357.822357 351.278503,361.811157 
	C345.210693,361.332458 340.572601,356.054321 339.975159,349.813019 
	C339.677185,346.699921 338.860168,343.640106 338.388519,340.539368 
	C337.547119,335.008057 336.665131,329.478302 336.026154,323.921906 
	C335.064453,315.559265 334.300598,307.173859 333.443787,298.799072 
	C333.325562,297.643524 332.922485,296.464233 333.060760,295.346588 
	C333.334198,293.136627 333.894043,290.962067 334.335480,288.772888 
	C336.074310,289.829742 337.807404,290.896301 339.555328,291.937927 
	C340.121613,292.275391 340.726837,292.547607 341.649200,292.919922 
z"/>
<path fill="#3DEFA7" opacity="1.000000" stroke="none" 
	d="
M252.087601,194.755157 
	C251.679077,195.120255 251.442184,195.328262 251.088470,195.755554 
	C250.682434,196.123398 250.446396,196.332306 250.090775,196.757523 
	C249.684265,197.125565 249.449188,197.335632 249.094620,197.761856 
	C248.695236,198.137833 248.463104,198.350540 248.104477,198.771255 
	C247.701447,199.143646 247.468781,199.355972 247.109818,199.776733 
	C246.709885,200.153305 246.478806,200.367661 246.119751,200.788498 
	C245.640686,201.401657 245.310089,201.830429 244.863617,202.504944 
	C243.212845,204.272217 241.677963,205.793762 240.050491,207.635468 
	C239.957916,207.955597 239.512253,208.029449 239.289673,208.064667 
	C237.445587,208.941040 235.532135,209.472031 234.252609,210.676483 
	C228.428986,216.158447 222.896484,221.954102 216.978226,227.327377 
	C215.807404,228.390411 212.887436,228.912018 211.714493,228.178833 
	C210.646881,227.511520 210.158936,224.595963 210.617767,223.021866 
	C213.588226,212.831070 217.314224,202.844437 219.921829,192.569885 
	C221.522461,186.263000 220.832657,179.368240 222.483322,173.081970 
	C225.651657,161.015854 224.675247,147.080734 236.850586,138.331070 
	C243.045441,137.040787 249.051132,136.021011 255.495224,135.016281 
	C254.965118,137.182938 253.932388,139.308380 253.042892,141.492172 
	C251.653946,144.902191 249.152252,148.384262 249.243561,151.778763 
	C249.593338,164.783401 250.985794,177.736404 254.834930,190.676056 
	C254.676910,191.493164 254.373657,191.946136 253.981583,192.660614 
	C253.649689,193.117386 253.426331,193.333069 253.083359,193.756287 
	C252.679413,194.120148 252.442062,194.328003 252.087601,194.755157 
z"/>
</svg>